<svg xmlns="http://www.w3.org/2000/svg" xmlns:xlink="http://www.w3.org/1999/xlink" width="1254" zoomAndPan="magnify" viewBox="0 0 940.5 940.499971" height="1254" preserveAspectRatio="xMidYMid meet" version="1.0"><defs><g/><clipPath id="e001a81ea0"><path d="M 482.335938 481.28125 L 893.679688 481.28125 L 893.679688 899 L 482.335938 899 Z M 482.335938 481.28125 " clip-rule="nonzero"/></clipPath><clipPath id="236ef2d841"><path d="M 496.578125 481.28125 L 879.4375 481.28125 C 887.304688 481.28125 893.679688 487.660156 893.679688 495.527344 L 893.679688 884.105469 C 893.679688 891.972656 887.304688 898.347656 879.4375 898.347656 L 496.578125 898.347656 C 488.710938 898.347656 482.335938 891.972656 482.335938 884.105469 L 482.335938 495.527344 C 482.335938 487.660156 488.710938 481.28125 496.578125 481.28125 Z M 496.578125 481.28125 " clip-rule="nonzero"/></clipPath><clipPath id="131e5d83c9"><path d="M 0.335938 0.28125 L 411.679688 0.28125 L 411.679688 417.5625 L 0.335938 417.5625 Z M 0.335938 0.28125 " clip-rule="nonzero"/></clipPath><clipPath id="bf242109ee"><path d="M 14.578125 0.28125 L 397.4375 0.28125 C 405.304688 0.28125 411.679688 6.660156 411.679688 14.527344 L 411.679688 403.105469 C 411.679688 410.972656 405.304688 417.347656 397.4375 417.347656 L 14.578125 417.347656 C 6.710938 417.347656 0.335938 410.972656 0.335938 403.105469 L 0.335938 14.527344 C 0.335938 6.660156 6.710938 0.28125 14.578125 0.28125 Z M 14.578125 0.28125 " clip-rule="nonzero"/></clipPath><clipPath id="b3df883b8b"><rect x="0" width="412" y="0" height="418"/></clipPath><clipPath id="48dd121c6d"><path d="M 482.335938 481.28125 L 893.867188 481.28125 L 893.867188 898.0625 L 482.335938 898.0625 Z M 482.335938 481.28125 " clip-rule="nonzero"/></clipPath><clipPath id="b8c15d68ea"><path d="M 496.578125 481.28125 L 879.433594 481.28125 C 887.300781 481.28125 893.675781 487.660156 893.675781 495.523438 L 893.675781 884.101562 C 893.675781 891.964844 887.300781 898.34375 879.433594 898.34375 L 496.578125 898.34375 C 488.714844 898.34375 482.335938 891.964844 482.335938 884.101562 L 482.335938 495.523438 C 482.335938 487.660156 488.714844 481.28125 496.578125 481.28125 Z M 496.578125 481.28125 " clip-rule="nonzero"/></clipPath><clipPath id="0e5019a063"><path d="M 46.320312 481.28125 L 457.664062 481.28125 L 457.664062 899 L 46.320312 899 Z M 46.320312 481.28125 " clip-rule="nonzero"/></clipPath><clipPath id="a44f507012"><path d="M 60.5625 481.28125 L 443.421875 481.28125 C 451.289062 481.28125 457.664062 487.660156 457.664062 495.527344 L 457.664062 884.105469 C 457.664062 891.972656 451.289062 898.347656 443.421875 898.347656 L 60.5625 898.347656 C 52.695312 898.347656 46.320312 891.972656 46.320312 884.105469 L 46.320312 495.527344 C 46.320312 487.660156 52.695312 481.28125 60.5625 481.28125 Z M 60.5625 481.28125 " clip-rule="nonzero"/></clipPath><clipPath id="8c5a9abada"><path d="M 0.320312 0.28125 L 411.664062 0.28125 L 411.664062 417.5625 L 0.320312 417.5625 Z M 0.320312 0.28125 " clip-rule="nonzero"/></clipPath><clipPath id="67ae0e8aa3"><path d="M 14.5625 0.28125 L 397.421875 0.28125 C 405.289062 0.28125 411.664062 6.660156 411.664062 14.527344 L 411.664062 403.105469 C 411.664062 410.972656 405.289062 417.347656 397.421875 417.347656 L 14.5625 417.347656 C 6.695312 417.347656 0.320312 410.972656 0.320312 403.105469 L 0.320312 14.527344 C 0.320312 6.660156 6.695312 0.28125 14.5625 0.28125 Z M 14.5625 0.28125 " clip-rule="nonzero"/></clipPath><clipPath id="5d540de151"><rect x="0" width="412" y="0" height="418"/></clipPath><clipPath id="ecc661f9fa"><path d="M 46.320312 481.28125 L 457.851562 481.28125 L 457.851562 898.0625 L 46.320312 898.0625 Z M 46.320312 481.28125 " clip-rule="nonzero"/></clipPath><clipPath id="96d00910ed"><path d="M 60.5625 481.28125 L 443.417969 481.28125 C 451.285156 481.28125 457.660156 487.660156 457.660156 495.523438 L 457.660156 884.101562 C 457.660156 891.964844 451.285156 898.34375 443.417969 898.34375 L 60.5625 898.34375 C 52.699219 898.34375 46.320312 891.964844 46.320312 884.101562 L 46.320312 495.523438 C 46.320312 487.660156 52.699219 481.28125 60.5625 481.28125 Z M 60.5625 481.28125 " clip-rule="nonzero"/></clipPath><clipPath id="daa8f6a089"><path d="M 248.910156 47.503906 L 660.253906 47.503906 L 660.253906 465 L 248.910156 465 Z M 248.910156 47.503906 " clip-rule="nonzero"/></clipPath><clipPath id="ac425b0f2d"><path d="M 263.152344 47.503906 L 646.011719 47.503906 C 653.878906 47.503906 660.253906 53.882812 660.253906 61.746094 L 660.253906 450.328125 C 660.253906 458.195312 653.878906 464.570312 646.011719 464.570312 L 263.152344 464.570312 C 255.285156 464.570312 248.910156 458.195312 248.910156 450.328125 L 248.910156 61.746094 C 248.910156 53.882812 255.285156 47.503906 263.152344 47.503906 Z M 263.152344 47.503906 " clip-rule="nonzero"/></clipPath><clipPath id="abb91ea79d"><path d="M 0.910156 0.503906 L 412.253906 0.503906 L 412.253906 417.632812 L 0.910156 417.632812 Z M 0.910156 0.503906 " clip-rule="nonzero"/></clipPath><clipPath id="0d85392315"><path d="M 15.152344 0.503906 L 398.011719 0.503906 C 405.878906 0.503906 412.253906 6.882812 412.253906 14.746094 L 412.253906 403.328125 C 412.253906 411.195312 405.878906 417.570312 398.011719 417.570312 L 15.152344 417.570312 C 7.285156 417.570312 0.910156 411.195312 0.910156 403.328125 L 0.910156 14.746094 C 0.910156 6.882812 7.285156 0.503906 15.152344 0.503906 Z M 15.152344 0.503906 " clip-rule="nonzero"/></clipPath><clipPath id="c26a35a845"><rect x="0" width="413" y="0" height="418"/></clipPath><clipPath id="039e231be2"><path d="M 248.910156 47.503906 L 660.441406 47.503906 L 660.441406 464.285156 L 248.910156 464.285156 Z M 248.910156 47.503906 " clip-rule="nonzero"/></clipPath><clipPath id="f4b0c9e405"><path d="M 263.152344 47.503906 L 646.007812 47.503906 C 653.875 47.503906 660.25 53.882812 660.25 61.746094 L 660.25 450.324219 C 660.25 458.1875 653.875 464.566406 646.007812 464.566406 L 263.152344 464.566406 C 255.289062 464.566406 248.910156 458.1875 248.910156 450.324219 L 248.910156 61.746094 C 248.910156 53.882812 255.289062 47.503906 263.152344 47.503906 Z M 263.152344 47.503906 " clip-rule="nonzero"/></clipPath></defs><g clip-path="url(#e001a81ea0)"><g clip-path="url(#236ef2d841)"><g transform="matrix(1, 0, 0, 1, 482, 481)"><g clip-path="url(#b3df883b8b)"><g clip-path="url(#131e5d83c9)"><g clip-path="url(#bf242109ee)"><path fill="#ffffff" d="M 0.335938 0.28125 L 411.679688 0.28125 L 411.679688 418.054688 L 0.335938 418.054688 Z M 0.335938 0.28125 " fill-opacity="1" fill-rule="nonzero"/></g></g></g></g></g></g><g clip-path="url(#48dd121c6d)"><g clip-path="url(#b8c15d68ea)"><path stroke-linecap="butt" transform="matrix(0.749601, 0, 0, 0.749601, 482.335051, 481.283076)" fill="none" stroke-linejoin="miter" d="M 19.000863 -0.00243536 L 529.746243 -0.00243536 C 540.241404 -0.00243536 548.745923 8.507295 548.745923 18.997245 L 548.745923 537.37689 C 548.745923 547.866839 540.241404 556.37657 529.746243 556.37657 L 19.000863 556.37657 C 8.510914 556.37657 0.001183 547.866839 0.001183 537.37689 L 0.001183 18.997245 C 0.001183 8.507295 8.510914 -0.00243536 19.000863 -0.00243536 Z M 19.000863 -0.00243536 " stroke="#000000" stroke-width="40" stroke-opacity="1" stroke-miterlimit="4"/></g></g><g fill="#000000" fill-opacity="1"><g transform="translate(553.851712, 767.630823)"><g><path d="M 258.515625 0 L 189.109375 0 C 185.929688 -4.394531 183.691406 -10.007812 182.390625 -16.84375 C 181.253906 -22.125 179.546875 -27.304688 177.265625 -32.390625 C 174.992188 -37.472656 171.070312 -41.703125 165.5 -45.078125 C 159.925781 -48.453125 151.648438 -50.265625 140.671875 -50.515625 L 92.96875 -50.515625 L 92.96875 0 L 19.515625 0 L 19.515625 -175.078125 L 138.953125 -175.078125 C 167.503906 -175.078125 190.539062 -172.941406 208.0625 -168.671875 C 225.59375 -164.398438 238.382812 -157.6875 246.4375 -148.53125 C 254.488281 -139.382812 258.515625 -127.453125 258.515625 -112.734375 C 258.515625 -100.453125 255.726562 -90.117188 250.15625 -81.734375 C 244.59375 -73.359375 235.789062 -66.734375 223.75 -61.859375 C 235.382812 -57.054688 242.925781 -51.300781 246.375 -44.59375 C 249.832031 -37.882812 251.96875 -30.503906 252.78125 -22.453125 C 253.59375 -15.296875 255.503906 -7.8125 258.515625 0 Z M 92.96875 -93.703125 L 134.9375 -93.8125 C 146.644531 -93.8125 155.875 -94.335938 162.625 -95.390625 C 169.375 -96.453125 174.351562 -97.898438 177.5625 -99.734375 C 180.78125 -101.566406 182.835938 -103.597656 183.734375 -105.828125 C 184.628906 -108.066406 185.078125 -110.367188 185.078125 -112.734375 C 185.078125 -115.085938 184.628906 -117.398438 183.734375 -119.671875 C 182.835938 -121.953125 180.78125 -124.007812 177.5625 -125.84375 C 174.351562 -127.675781 169.375 -129.117188 162.625 -130.171875 C 155.875 -131.234375 146.644531 -131.765625 134.9375 -131.765625 L 92.96875 -131.765625 Z M 92.96875 -93.703125 "/></g></g></g><g clip-path="url(#0e5019a063)"><g clip-path="url(#a44f507012)"><g transform="matrix(1, 0, 0, 1, 46, 481)"><g clip-path="url(#5d540de151)"><g clip-path="url(#8c5a9abada)"><g clip-path="url(#67ae0e8aa3)"><path fill="#ffffff" d="M 0.320312 0.28125 L 411.664062 0.28125 L 411.664062 418.054688 L 0.320312 418.054688 Z M 0.320312 0.28125 " fill-opacity="1" fill-rule="nonzero"/></g></g></g></g></g></g><g clip-path="url(#ecc661f9fa)"><g clip-path="url(#96d00910ed)"><path stroke-linecap="butt" transform="matrix(0.749601, 0, 0, 0.749601, 46.320022, 481.283076)" fill="none" stroke-linejoin="miter" d="M 19.000068 -0.00243536 L 529.745448 -0.00243536 C 540.240608 -0.00243536 548.745128 8.507295 548.745128 18.997245 L 548.745128 537.37689 C 548.745128 547.866839 540.240608 556.37657 529.745448 556.37657 L 19.000068 556.37657 C 8.510118 556.37657 0.000387624 547.866839 0.000387624 537.37689 L 0.000387624 18.997245 C 0.000387624 8.507295 8.510118 -0.00243536 19.000068 -0.00243536 Z M 19.000068 -0.00243536 " stroke="#000000" stroke-width="40" stroke-opacity="1" stroke-miterlimit="4"/></g></g><g fill="#000000" fill-opacity="1"><g transform="translate(97.585732, 767.630823)"><g><path d="M 306.953125 0 L 211.546875 0 L 136.390625 -58.5625 L 92.96875 -28.921875 L 92.96875 0 L 19.515625 0 L 19.515625 -175.078125 L 92.96875 -175.078125 L 92.96875 -94.0625 L 210.8125 -175.078125 L 306.953125 -175.078125 L 181.53125 -89.421875 Z M 306.953125 0 "/></g></g></g><g clip-path="url(#daa8f6a089)"><g clip-path="url(#ac425b0f2d)"><g transform="matrix(1, 0, 0, 1, 248, 47)"><g clip-path="url(#c26a35a845)"><g clip-path="url(#abb91ea79d)"><g clip-path="url(#0d85392315)"><path fill="#ffffff" d="M 0.910156 0.503906 L 412.253906 0.503906 L 412.253906 418.277344 L 0.910156 418.277344 Z M 0.910156 0.503906 " fill-opacity="1" fill-rule="nonzero"/></g></g></g></g></g></g><g clip-path="url(#039e231be2)"><g clip-path="url(#f4b0c9e405)"><path stroke-linecap="butt" transform="matrix(0.749601, 0, 0, 0.749601, 248.90886, 47.505069)" fill="none" stroke-linejoin="miter" d="M 19.00141 -0.00155054 L 529.74679 -0.00155054 C 540.24195 -0.00155054 548.74647 8.50818 548.74647 18.99813 L 548.74647 537.377775 C 548.74647 547.867724 540.24195 556.377455 529.74679 556.377455 L 19.00141 556.377455 C 8.51146 556.377455 0.00172964 547.867724 0.00172964 537.377775 L 0.00172964 18.99813 C 0.00172964 8.50818 8.51146 -0.00155054 19.00141 -0.00155054 Z M 19.00141 -0.00155054 " stroke="#000000" stroke-width="40" stroke-opacity="1" stroke-miterlimit="4"/></g></g><g fill="#000000" fill-opacity="1"><g transform="translate(340.196259, 333.852816)"><g><path d="M 223.875 0 L 19.515625 0 L 19.515625 -175.078125 L 92.96875 -175.078125 L 92.96875 -43.3125 L 223.875 -43.3125 Z M 223.875 0 "/></g></g></g></svg>